<svg height="18pt" version="1.1" viewBox="0 0 54 18" width="54pt" xmlns="http://www.w3.org/2000/svg" xmlns:xlink="http://www.w3.org/1999/xlink">
 <g id="figure_1">
  <g id="patch_1">
   <path d="M 0 18
L 54 18
L 54 0
L 0 0
z
" style="fill:none;"/>
  </g>
  <g id="axes_1">
   <g id="line2d_1">
    <path clip-path="url(#peaaa2fd3e3)" d="M 2.454545 9
L 5.160344 7.124681
L 6.319971 6.545069
L 7.479599 6.207045
L 8.639227 6.150278
L 9.798855 6.380754
L 10.958482 6.863052
L 13.277738 8.210091
L 14.437366 8.79151
L 15.596994 9.099458
L 16.370079 9.088321
L 17.143164 8.878447
L 17.916249 8.469792
L 19.075877 7.541774
L 21.781675 5.054015
L 22.55476 4.662304
L 23.327845 4.567274
L 24.100931 4.814686
L 24.874016 5.407444
L 25.647101 6.29775
L 28.352899 9.956507
L 29.125984 10.46926
L 29.512527 10.540695
L 29.899069 10.474129
L 30.285612 10.265005
L 31.058697 9.431231
L 31.831782 8.128533
L 34.151038 3.664421
L 34.537581 3.224864
L 34.924123 2.964516
L 35.310666 2.906228
L 35.697208 3.06378
L 36.083751 3.440397
L 36.856836 4.805238
L 38.016464 7.901971
L 39.176092 10.989569
L 39.562634 11.72477
L 39.949177 12.217402
L 40.335719 12.424677
L 40.722262 12.31873
L 41.108805 11.88961
L 41.495347 11.14738
L 42.268432 8.868333
L 44.201145 2.038144
L 44.587688 1.234146
L 44.97423 0.818182
L 45.360773 0.840679
L 45.747316 1.32304
L 46.133858 2.253693
L 46.906943 5.240711
L 48.453114 12.560401
L 48.839656 13.831438
L 49.226199 14.606821
L 49.612742 14.796036
L 49.999284 14.352468
L 50.385827 13.28096
L 51.158912 9.548236
L 51.545455 7.163497
L 51.545455 7.163497
" style="fill:none;stroke:#cc0d1a;stroke-linecap:square;stroke-width:1.5;"/>
   </g>
  </g>
 </g>
 <defs>
  <clipPath id="peaaa2fd3e3">
   <rect height="18" width="54" x="0" y="0"/>
  </clipPath>
 </defs>
</svg>
