<svg height="18pt" version="1.1" viewBox="0 0 54 18" width="54pt" xmlns="http://www.w3.org/2000/svg" xmlns:xlink="http://www.w3.org/1999/xlink">
 <g id="figure_1">
  <g id="patch_1">
   <path d="M 0 18
L 54 18
L 54 0
L 0 0
z
" style="fill:none;"/>
  </g>
  <g id="axes_1">
   <g id="line2d_1">
    <path clip-path="url(#p6eb91deae1)" d="M 2.454545 9
L 5.160344 10.875319
L 6.319971 11.454931
L 7.479599 11.792955
L 8.639227 11.849722
L 9.798855 11.619246
L 10.958482 11.136948
L 13.277738 9.789909
L 14.437366 9.20849
L 15.596994 8.900542
L 16.370079 8.911679
L 17.143164 9.121553
L 17.916249 9.530208
L 19.075877 10.458226
L 21.781675 12.945985
L 22.55476 13.337696
L 23.327845 13.432726
L 24.100931 13.185314
L 24.874016 12.592556
L 25.647101 11.70225
L 28.352899 8.043493
L 29.125984 7.53074
L 29.512527 7.459305
L 29.899069 7.525871
L 30.285612 7.734995
L 31.058697 8.568769
L 31.831782 9.871467
L 34.151038 14.335579
L 34.537581 14.775136
L 34.924123 15.035484
L 35.310666 15.093772
L 35.697208 14.93622
L 36.083751 14.559603
L 36.856836 13.194762
L 38.016464 10.098029
L 39.176092 7.010431
L 39.562634 6.27523
L 39.949177 5.782598
L 40.335719 5.575323
L 40.722262 5.68127
L 41.108805 6.11039
L 41.495347 6.85262
L 42.268432 9.131667
L 44.201145 15.961856
L 44.587688 16.765854
L 44.97423 17.181818
L 45.360773 17.159321
L 45.747316 16.67696
L 46.133858 15.746307
L 46.906943 12.759289
L 48.453114 5.439599
L 48.839656 4.168562
L 49.226199 3.393179
L 49.612742 3.203964
L 49.999284 3.647532
L 50.385827 4.71904
L 51.158912 8.451764
L 51.545455 10.836503
L 51.545455 10.836503
" style="fill:none;stroke:#33f2e6;stroke-linecap:square;stroke-width:1.5;"/>
   </g>
  </g>
 </g>
 <defs>
  <clipPath id="p6eb91deae1">
   <rect height="18" width="54" x="0" y="0"/>
  </clipPath>
 </defs>
</svg>
