<svg height="36pt" version="1.1" viewBox="0 0 72 36" width="72pt" xmlns="http://www.w3.org/2000/svg" xmlns:xlink="http://www.w3.org/1999/xlink">
 <g id="figure_1">
  <g id="patch_1">
   <path d="M 0 36
L 72 36
L 72 0
L 0 0
z
" style="fill:none;"/>
  </g>
  <g id="axes_1">
   <g id="line2d_1">
    <path clip-path="url(#p320c124c7d)" d="M 3.272727 18
L 4.303508 14.156411
L 4.818898 12.663609
L 5.334288 11.656456
L 5.849678 11.235386
L 6.365068 11.445756
L 6.880458 12.270572
L 7.395848 13.629849
L 8.426628 17.363495
L 9.457409 21.160878
L 9.972799 22.597239
L 10.488189 23.527394
L 11.003579 23.872996
L 11.518969 23.623281
L 12.034359 22.834729
L 13.06514 20.141969
L 14.09592 17.084997
L 14.61131 15.831926
L 15.1267 14.919721
L 15.64209 14.403304
L 16.15748 14.28292
L 16.67287 14.510132
L 17.188261 15.000628
L 19.765211 18.109491
L 20.795991 18.791283
L 22.857552 20.011698
L 23.888332 20.591713
L 24.403722 20.689369
L 24.919112 20.555522
L 25.434503 20.132505
L 25.949893 19.399209
L 26.980673 17.165319
L 28.011453 14.672804
L 28.526843 13.734837
L 29.042233 13.219134
L 29.557623 13.241856
L 30.073014 13.853625
L 30.588404 15.024997
L 31.619184 18.523505
L 32.649964 22.103026
L 33.165354 23.308743
L 33.680744 23.86152
L 34.196135 23.661183
L 34.711525 22.710489
L 35.226915 21.11931
L 37.288475 13.243858
L 37.803865 12.294934
L 38.319256 12.151227
L 38.834646 12.836804
L 39.350036 14.253993
L 41.411596 22.164595
L 41.926986 23.205633
L 42.442377 23.437028
L 42.957767 22.825995
L 43.473157 21.469213
L 45.534717 13.812567
L 46.050107 12.879496
L 46.565497 12.776185
L 47.080888 13.525376
L 47.596278 15.014732
L 49.657838 22.790513
L 50.173228 23.596116
L 50.688618 23.514669
L 51.204009 22.541863
L 51.719399 20.815029
L 53.265569 14.067047
L 53.780959 12.479096
L 54.296349 11.717791
L 54.811739 11.919234
L 55.32713 13.070634
L 55.84252 15.009995
L 57.38869 22.318484
L 57.90408 23.991093
L 58.41947 24.767633
L 58.93486 24.516287
L 59.450251 23.263612
L 59.965641 21.192338
L 61.511811 13.539017
L 62.027201 11.82922
L 62.542591 11.065928
L 63.057981 11.374104
L 63.573372 12.712357
L 64.088762 14.877851
L 65.634932 22.662657
L 66.150322 24.322487
L 66.665712 24.987951
L 67.181102 24.5473
L 67.696492 23.062357
L 68.727273 18
L 68.727273 18
" style="fill:none;stroke:#e61ae6;stroke-linecap:square;stroke-width:1.5;"/>
   </g>
  </g>
 </g>
 <defs>
  <clipPath id="p320c124c7d">
   <rect height="36" width="72" x="0" y="0"/>
  </clipPath>
 </defs>
</svg>
