<svg height="36pt" version="1.1" viewBox="0 0 72 36" width="72pt" xmlns="http://www.w3.org/2000/svg" xmlns:xlink="http://www.w3.org/1999/xlink">
 <g id="figure_1">
  <g id="patch_1">
   <path d="M 0 36
L 72 36
L 72 0
L 0 0
z
" style="fill:none;"/>
  </g>
  <g id="axes_1">
   <g id="line2d_1">
    <path clip-path="url(#p12c0a407d9)" d="M 3.272727 18
L 4.818898 17.845997
L 5.849678 17.741868
L 6.880458 17.855032
L 8.426628 18.425267
L 9.457409 18.709453
L 9.972799 18.702718
L 10.488189 18.567014
L 11.518969 17.952004
L 13.06514 16.892645
L 13.58053 16.762056
L 14.09592 16.825713
L 14.61131 17.094047
L 15.64209 18.112505
L 16.67287 19.262823
L 17.188261 19.646872
L 17.703651 19.793136
L 18.219041 19.657607
L 18.734431 19.240425
L 19.765211 17.793954
L 20.795991 16.266843
L 21.311382 15.791182
L 21.826772 15.641467
L 22.342162 15.862589
L 22.857552 16.441138
L 23.888332 18.328225
L 24.919112 20.222477
L 25.434503 20.778483
L 25.949893 20.918844
L 26.465283 20.600297
L 26.980673 19.851828
L 28.011453 17.522566
L 29.042233 15.279856
L 29.557623 14.656688
L 30.073014 14.538279
L 30.588404 14.963911
L 31.103794 15.887203
L 32.134574 18.651331
L 33.165354 21.217699
L 33.680744 21.894009
L 34.196135 21.978618
L 34.711525 21.438309
L 35.226915 20.338218
L 37.288475 14.290754
L 37.803865 13.575329
L 38.319256 13.535371
L 38.834646 14.196227
L 39.350036 15.473029
L 41.411596 22.191119
L 41.926986 22.932112
L 42.442377 22.917582
L 42.957767 22.131613
L 43.473157 20.679516
L 45.534717 13.338901
L 46.050107 12.585222
L 46.565497 12.663164
L 47.080888 13.577831
L 47.596278 15.202935
L 49.142448 21.592114
L 49.657838 23.117561
L 50.173228 23.871713
L 50.688618 23.72224
L 51.204009 22.676109
L 51.719399 20.880997
L 53.265569 14.025774
L 53.780959 12.441158
L 54.296349 11.698141
L 54.811739 11.9265
L 55.32713 13.106045
L 55.84252 15.067407
L 57.38869 22.352921
L 57.90408 23.982944
L 58.41947 24.703785
L 58.93486 24.389972
L 59.450251 23.075968
L 59.965641 20.95301
L 61.511811 13.274362
L 62.027201 11.612473
L 62.542591 10.924272
L 63.057981 11.329249
L 63.573372 12.777742
L 64.604152 17.820624
L 65.634932 23.089597
L 66.150322 24.770043
L 66.665712 25.41577
L 67.181102 24.914856
L 67.696492 23.332948
L 68.727273 18
L 68.727273 18
" style="fill:none;stroke:#1a0dcc;stroke-linecap:square;stroke-width:1.5;"/>
   </g>
  </g>
 </g>
 <defs>
  <clipPath id="p12c0a407d9">
   <rect height="36" width="72" x="0" y="0"/>
  </clipPath>
 </defs>
</svg>
