<svg height="36pt" version="1.1" viewBox="0 0 72 36" width="72pt" xmlns="http://www.w3.org/2000/svg" xmlns:xlink="http://www.w3.org/1999/xlink">
 <g id="figure_1">
  <g id="patch_1">
   <path d="M 0 36
L 72 36
L 72 0
L 0 0
z
" style="fill:none;"/>
  </g>
  <g id="axes_1">
   <g id="line2d_1">
    <path clip-path="url(#p4619e8d299)" d="M 3.272727 18
L 4.303508 14.234528
L 4.818898 12.817613
L 5.334288 11.879652
L 5.849678 11.493518
L 6.365068 11.681743
L 6.880458 12.415541
L 7.395848 13.618464
L 8.426628 16.938228
L 9.457409 20.451425
L 9.972799 21.894522
L 10.488189 22.96038
L 11.003579 23.565993
L 11.518969 23.671277
L 12.034359 23.281442
L 12.549749 22.445234
L 13.58053 19.809462
L 15.1267 15.377246
L 15.64209 14.290799
L 16.15748 13.563913
L 16.67287 13.247309
L 17.188261 13.353757
L 17.703651 13.858304
L 18.219041 14.70187
L 19.249821 17.040424
L 20.280601 19.510516
L 20.795991 20.52444
L 21.311382 21.276531
L 21.826772 21.712493
L 22.342162 21.808204
L 22.857552 21.57056
L 23.372942 21.035494
L 24.403722 19.33308
L 25.949893 16.480366
L 26.465283 15.782941
L 26.980673 15.313492
L 27.496063 15.100993
L 28.011453 15.150239
L 28.526843 15.442672
L 29.557623 16.585168
L 31.619184 19.343217
L 32.134574 19.777248
L 32.649964 20.030023
L 33.165354 20.091044
L 33.680744 19.967512
L 34.711525 19.272181
L 37.288475 16.953104
L 37.803865 16.719605
L 38.319256 16.615856
L 38.834646 16.640577
L 39.865426 17.014759
L 42.957767 18.694381
L 43.988547 18.80509
L 45.019327 18.631471
L 48.111668 17.714971
L 49.142448 17.648878
L 50.688618 17.792429
L 52.750179 18.025421
L 54.811739 17.992733
L 56.8733 17.940105
L 58.93486 18.126316
L 60.996421 18.283154
L 62.542591 18.141656
L 66.150322 17.552444
L 67.181102 17.632444
L 68.727273 18
L 68.727273 18
" style="fill:none;stroke:#cc0d1a;stroke-linecap:square;stroke-width:1.5;"/>
   </g>
  </g>
 </g>
 <defs>
  <clipPath id="p4619e8d299">
   <rect height="36" width="72" x="0" y="0"/>
  </clipPath>
 </defs>
</svg>
