<svg height="36pt" version="1.1" viewBox="0 0 72 36" width="72pt" xmlns="http://www.w3.org/2000/svg" xmlns:xlink="http://www.w3.org/1999/xlink">
 <g id="figure_1">
  <g id="patch_1">
   <path d="M 0 36
L 72 36
L 72 0
L 0 0
z
" style="fill:none;"/>
  </g>
  <g id="axes_1">
   <g id="line2d_1">
    <path clip-path="url(#p4b9a36d3ff)" d="M 3.272727 18
L 4.303508 21.765472
L 4.818898 23.182387
L 5.334288 24.120348
L 5.849678 24.506482
L 6.365068 24.318257
L 6.880458 23.584459
L 7.395848 22.381536
L 8.426628 19.061772
L 9.457409 15.548575
L 9.972799 14.105478
L 10.488189 13.03962
L 11.003579 12.434007
L 11.518969 12.328723
L 12.034359 12.718558
L 12.549749 13.554766
L 13.58053 16.190538
L 15.1267 20.622754
L 15.64209 21.709201
L 16.15748 22.436087
L 16.67287 22.752691
L 17.188261 22.646243
L 17.703651 22.141696
L 18.219041 21.29813
L 19.249821 18.959576
L 20.280601 16.489484
L 20.795991 15.47556
L 21.311382 14.723469
L 21.826772 14.287507
L 22.342162 14.191796
L 22.857552 14.42944
L 23.372942 14.964506
L 24.403722 16.66692
L 25.949893 19.519634
L 26.465283 20.217059
L 26.980673 20.686508
L 27.496063 20.899007
L 28.011453 20.849761
L 28.526843 20.557328
L 29.557623 19.414832
L 31.619184 16.656783
L 32.134574 16.222752
L 32.649964 15.969977
L 33.165354 15.908956
L 33.680744 16.032488
L 34.711525 16.727819
L 37.288475 19.046896
L 37.803865 19.280395
L 38.319256 19.384144
L 38.834646 19.359423
L 39.865426 18.985241
L 42.957767 17.305619
L 43.988547 17.19491
L 45.019327 17.368529
L 48.111668 18.285029
L 49.142448 18.351122
L 50.688618 18.207571
L 52.750179 17.974579
L 54.811739 18.007267
L 56.8733 18.059895
L 58.93486 17.873684
L 60.996421 17.716846
L 62.542591 17.858344
L 66.150322 18.447556
L 67.181102 18.367556
L 68.727273 18
L 68.727273 18
" style="fill:none;stroke:#33f2e6;stroke-linecap:square;stroke-width:1.5;"/>
   </g>
  </g>
 </g>
 <defs>
  <clipPath id="p4b9a36d3ff">
   <rect height="36" width="72" x="0" y="0"/>
  </clipPath>
 </defs>
</svg>
