<svg height="36pt" version="1.1" viewBox="0 0 72 36" width="72pt" xmlns="http://www.w3.org/2000/svg" xmlns:xlink="http://www.w3.org/1999/xlink">
 <g id="figure_1">
  <g id="patch_1">
   <path d="M 0 36
L 72 36
L 72 0
L 0 0
z
" style="fill:none;"/>
  </g>
  <g id="axes_1">
   <g id="line2d_1">
    <path clip-path="url(#p5797117576)" d="M 3.272727 18
L 4.818898 7.930427
L 5.849678 2.95669
L 6.365068 1.306986
L 6.880458 0.308895
L 7.395848 0.001377
L 7.911238 0.396435
L 8.426628 1.478649
L 8.942019 3.205774
L 9.972799 8.302543
L 11.518969 18.44522
L 13.06514 28.435528
L 14.09592 33.283189
L 14.61131 34.854462
L 15.1267 35.76782
L 15.64209 35.98761
L 16.15748 35.505254
L 16.67287 34.33958
L 17.188261 32.536089
L 18.219041 27.319407
L 19.765211 17.109833
L 21.311382 7.204903
L 22.342162 2.486283
L 22.857552 0.994403
L 23.372942 0.166338
L 23.888332 0.034409
L 24.403722 0.603768
L 24.919112 1.85219
L 25.434503 3.730942
L 26.465283 9.064345
L 28.011453 19.33457
L 29.557623 29.148061
L 30.588404 33.734753
L 31.103794 35.146327
L 31.619184 35.888593
L 32.134574 35.932578
L 32.649964 35.276565
L 33.165354 33.94616
L 33.680744 31.993296
L 34.711525 26.546435
L 38.319256 4.006704
L 38.834646 2.05384
L 39.350036 0.723435
L 39.865426 0.067422
L 40.380816 0.111407
L 40.896206 0.853673
L 41.411596 2.265247
L 41.926986 4.291028
L 42.957767 9.848014
L 46.050107 29.833314
L 46.565497 32.269058
L 47.080888 34.14781
L 47.596278 35.396232
L 48.111668 35.965591
L 48.627058 35.833662
L 49.142448 35.005597
L 49.657838 33.513717
L 50.173228 31.416259
L 51.204009 25.752549
L 54.296349 5.834817
L 54.811739 3.463911
L 55.32713 1.66042
L 55.84252 0.494746
L 56.35791 0.01239
L 56.8733 0.23218
L 57.38869 1.145538
L 57.90408 2.716811
L 58.41947 4.884662
L 59.450251 10.651632
L 62.542591 30.489608
L 63.057981 32.794226
L 63.573372 34.521351
L 64.088762 35.603565
L 64.604152 35.998623
L 65.119542 35.691105
L 65.634932 34.693014
L 66.150322 33.04331
L 66.665712 30.806391
L 67.696492 24.93969
L 68.727273 18
L 68.727273 18
" style="fill:none;stroke:#cc0d1a;stroke-linecap:square;stroke-width:1.5;"/>
   </g>
  </g>
 </g>
 <defs>
  <clipPath id="p5797117576">
   <rect height="36" width="72" x="0" y="0"/>
  </clipPath>
 </defs>
</svg>
