<svg height="36pt" version="1.1" viewBox="0 0 72 36" width="72pt" xmlns="http://www.w3.org/2000/svg" xmlns:xlink="http://www.w3.org/1999/xlink">
 <g id="figure_1">
  <g id="patch_1">
   <path d="M 0 36
L 72 36
L 72 0
L 0 0
z
" style="fill:none;"/>
  </g>
  <g id="axes_1">
   <g id="line2d_1">
    <path clip-path="url(#pa94d880bf0)" d="M 3.272727 18
L 4.818898 28.069573
L 5.849678 33.04331
L 6.365068 34.693014
L 6.880458 35.691105
L 7.395848 35.998623
L 7.911238 35.603565
L 8.426628 34.521351
L 8.942019 32.794226
L 9.972799 27.697457
L 11.518969 17.55478
L 13.06514 7.564472
L 14.09592 2.716811
L 14.61131 1.145538
L 15.1267 0.23218
L 15.64209 0.01239
L 16.15748 0.494746
L 16.67287 1.66042
L 17.188261 3.463911
L 18.219041 8.680593
L 19.765211 18.890167
L 21.311382 28.795097
L 22.342162 33.513717
L 22.857552 35.005597
L 23.372942 35.833662
L 23.888332 35.965591
L 24.403722 35.396232
L 24.919112 34.14781
L 25.434503 32.269058
L 26.465283 26.935655
L 28.011453 16.66543
L 29.557623 6.851939
L 30.588404 2.265247
L 31.103794 0.853673
L 31.619184 0.111407
L 32.134574 0.067422
L 32.649964 0.723435
L 33.165354 2.05384
L 33.680744 4.006704
L 34.711525 9.453565
L 38.319256 31.993296
L 38.834646 33.94616
L 39.350036 35.276565
L 39.865426 35.932578
L 40.380816 35.888593
L 40.896206 35.146327
L 41.411596 33.734753
L 41.926986 31.708972
L 42.957767 26.151986
L 46.050107 6.166686
L 46.565497 3.730942
L 47.080888 1.85219
L 47.596278 0.603768
L 48.111668 0.034409
L 48.627058 0.166338
L 49.142448 0.994403
L 49.657838 2.486283
L 50.173228 4.583741
L 51.204009 10.247451
L 54.296349 30.165183
L 54.811739 32.536089
L 55.32713 34.33958
L 55.84252 35.505254
L 56.35791 35.98761
L 56.8733 35.76782
L 57.38869 34.854462
L 57.90408 33.283189
L 58.41947 31.115338
L 59.450251 25.348368
L 62.542591 5.510392
L 63.057981 3.205774
L 63.573372 1.478649
L 64.088762 0.396435
L 64.604152 0.001377
L 65.119542 0.308895
L 65.634932 1.306986
L 66.150322 2.95669
L 66.665712 5.193609
L 67.696492 11.06031
L 68.727273 18
L 68.727273 18
" style="fill:none;stroke:#33f2e6;stroke-linecap:square;stroke-width:1.5;"/>
   </g>
  </g>
 </g>
 <defs>
  <clipPath id="pa94d880bf0">
   <rect height="36" width="72" x="0" y="0"/>
  </clipPath>
 </defs>
</svg>
