<svg height="108pt" version="1.1" viewBox="0 0 475.2 108" width="475.2pt" xmlns="http://www.w3.org/2000/svg" xmlns:xlink="http://www.w3.org/1999/xlink">
 <g id="figure_1">
  <g id="patch_1">
   <path d="M 0 108
L 475.2 108
L 475.2 0
L 0 0
z
" style="fill:none;"/>
  </g>
  <g id="axes_1">
   <g id="line2d_1">
    <path clip-path="url(#pc18caf8bee)" d="M 21.6 54.435059
L 21.913498 23.977661
L 22.226996 72.290588
L 22.540493 76.054504
L 22.853991 34.583862
L 23.167489 26.106812
L 23.480987 61.982666
L 23.794485 76.347839
L 24.107983 61.339966
L 24.42148 65.942688
L 24.734978 78.172119
L 25.048476 67.411011
L 25.361974 32.599731
L 25.675472 40.653259
L 25.98897 35.147461
L 26.302467 23.722229
L 26.615965 25.131226
L 26.929463 54.728394
L 27.242961 73.773743
L 27.556459 68.859558
L 27.869956 68.356934
L 28.183454 80.034302
L 28.496952 77.007019
L 28.81045 56.672974
L 29.123948 49.283569
L 29.437446 55.115662
L 30.064441 29.791626
L 30.377939 27.520752
L 31.004935 50.613464
L 31.318433 54.085693
L 31.63193 65.464783
L 31.945428 72.567444
L 32.258926 74.56311
L 32.572424 68.121277
L 33.199419 62.335327
L 33.826415 42.772522
L 34.139913 36.432861
L 34.453411 34.6745
L 34.766909 34.183411
L 35.080406 39.051453
L 35.707402 62.42926
L 36.0209 67.495056
L 36.334398 69.437988
L 36.647896 72.397705
L 36.961393 72.106018
L 38.528882 34.855774
L 38.84238 31.16272
L 39.155878 35.683044
L 40.409869 68.979858
L 40.723367 72.24939
L 41.036865 71.623169
L 41.350363 68.787048
L 41.663861 63.81189
L 42.604354 41.60907
L 42.917852 36.190613
L 43.23135 33.689026
L 43.544848 35.961548
L 44.171843 53.823669
L 44.798839 68.780457
L 45.112337 72.661377
L 45.425835 73.239807
L 45.739332 69.828552
L 46.679826 47.12146
L 47.306821 32.449768
L 47.620319 32.433289
L 47.933817 38.145081
L 48.874311 65.285156
L 49.187808 70.62616
L 49.501306 72.593811
L 49.814804 71.473206
L 50.128302 67.557678
L 51.695791 34.262512
L 52.009289 33.829102
L 52.322787 38.850403
L 53.576778 70.9953
L 53.890276 73.340332
L 54.203774 72.190063
L 54.517271 67.440674
L 56.084761 31.79718
L 56.398258 34.153748
L 57.025254 51.343506
L 57.65225 67.717529
L 57.965747 71.65448
L 58.279245 72.455383
L 58.592743 70.166382
L 58.906241 64.861633
L 60.160232 36.772339
L 60.47373 33.545654
L 60.787228 35.481995
L 61.100726 42.24353
L 62.041219 68.052063
L 62.354717 72.229614
L 62.668215 73.117859
L 62.981713 70.565186
L 63.608708 56.735596
L 64.549202 33.527527
L 64.8627 32.197632
L 65.176197 36.826721
L 66.430189 69.535217
L 66.743687 72.201599
L 67.057184 71.746765
L 67.370682 68.193787
L 68.938171 35.112854
L 69.251669 33.873596
L 69.565167 37.929199
L 70.819158 69.981812
L 71.132656 72.789917
L 71.446154 72.298828
L 71.759652 68.340454
L 72.700145 45.013733
L 73.013643 37.029419
L 73.327141 32.441528
L 73.640639 33.614868
L 73.954136 40.200073
L 74.89463 66.387634
L 75.208128 70.835449
L 75.521626 72.223022
L 75.835123 70.495972
L 76.148621 65.800964
L 77.402612 38.085754
L 77.71611 34.185059
L 78.029608 35.112854
L 78.343106 41.010864
L 79.283599 66.687561
L 79.597097 71.349609
L 79.910595 72.808044
L 80.224093 70.93103
L 80.537591 65.586731
L 81.791582 34.804688
L 82.10508 32.380554
L 82.418578 35.945068
L 83.672569 68.426147
L 83.986067 71.600098
L 84.299565 71.707214
L 84.613062 68.747498
L 85.240058 55.385925
L 86.180552 36.231812
L 86.494049 34.102661
L 86.807547 37.174438
L 87.434543 53.822021
L 88.061538 68.805176
L 88.375036 72.157104
L 88.688534 72.252686
L 89.002032 68.996338
L 89.629028 54.840454
L 90.569521 33.324829
L 90.883019 33.351196
L 91.196517 38.988831
L 92.13701 65.029724
L 92.450508 69.932373
L 92.764006 71.840698
L 93.077504 70.687134
L 93.391001 66.598572
L 94.644993 39.450256
L 94.958491 34.977722
L 95.271988 34.928284
L 95.585486 39.931458
L 96.52598 65.276917
L 96.839478 70.387207
L 97.152975 72.399353
L 97.466473 71.156799
L 97.779971 66.516174
L 99.34746 32.790894
L 99.660958 35.254578
L 100.287954 51.945007
L 100.914949 67.246216
L 101.228447 70.912903
L 101.541945 71.563843
L 101.855443 69.190796
L 102.16894 63.973389
L 103.109434 43.238892
L 103.422932 37.429871
L 103.73643 34.517944
L 104.049927 36.600952
L 104.363425 43.204285
L 105.303919 67.579102
L 105.617417 71.417175
L 105.930914 72.099426
L 106.244412 69.518738
L 106.871408 56.223083
L 107.811901 34.38446
L 108.125399 33.293518
L 108.438897 37.940735
L 109.692888 68.955139
L 110.006386 71.372681
L 110.319884 70.774475
L 110.633382 67.249512
L 112.200871 35.912109
L 112.514369 34.936523
L 112.827866 39.010254
L 114.081858 69.355591
L 114.395356 71.891785
L 114.708853 71.262268
L 115.022351 67.325317
L 115.962845 45.129089
L 116.276343 37.673767
L 116.58984 33.422058
L 116.903338 34.758545
L 117.216836 41.230042
L 118.157329 66.025085
L 118.470827 70.131775
L 118.784325 71.310059
L 119.097823 69.515442
L 119.411321 64.909424
L 120.665312 38.682312
L 120.97881 35.104614
L 121.292308 36.215332
L 121.605806 42.011169
L 122.546299 66.292053
L 122.859797 70.599792
L 123.173295 71.837402
L 123.486792 69.891174
L 123.80029 64.658936
L 125.054282 35.587463
L 125.367779 33.448425
L 125.681277 37.06897
L 126.935269 67.911987
L 127.248766 70.81073
L 127.562264 70.759644
L 127.875762 67.791687
L 128.502758 54.997009
L 129.443251 37.016235
L 129.756749 36.319153
L 130.070247 23.44043
L 130.383745 73.510071
L 130.697242 42.154541
L 131.01074 29.643311
L 131.324238 72.394409
L 131.637736 83.984436
L 131.951234 53.873108
L 132.264731 70.850281
L 132.578229 74.243408
L 132.891727 70.543762
L 133.205225 43.604736
L 133.518723 28.094238
L 133.832221 45.16864
L 134.145718 43.184509
L 134.459216 39.524414
L 134.772714 50.425598
L 135.086212 66.605164
L 135.39971 68.622253
L 135.713208 62.149109
L 136.026705 63.617432
L 136.340203 77.613464
L 136.653701 69.91095
L 136.967199 47.409851
L 137.280697 50.087769
L 137.594194 53.822021
L 137.907692 39.873779
L 138.22119 34.857422
L 138.534688 34.466858
L 138.848186 46.276062
L 139.161684 48.515625
L 139.475181 53.227112
L 140.102177 70.909607
L 140.415675 67.453857
L 141.042671 63.907471
L 141.356168 59.225647
L 141.983164 43.642639
L 142.61016 38.154968
L 142.923657 37.240356
L 143.237155 42.69342
L 143.864151 59.71344
L 144.804644 70.301514
L 145.118142 68.422852
L 146.685631 40.015503
L 146.999129 37.677063
L 147.312627 39.425537
L 147.939623 49.372559
L 148.566618 64.855042
L 148.880116 68.202026
L 149.193614 68.726074
L 149.507112 68.165771
L 149.82061 64.653992
L 150.761103 44.432007
L 151.074601 39.173401
L 151.388099 36.363647
L 151.701597 38.250549
L 153.269086 68.477234
L 153.582583 69.390198
L 153.896081 67.157227
L 154.523077 57.243164
L 155.46357 40.341797
L 155.777068 37.874817
L 156.090566 39.13385
L 156.404064 43.840393
L 157.344557 64.668823
L 157.658055 68.338806
L 157.971553 69.50061
L 158.285051 67.879028
L 158.598549 63.264771
L 159.85254 38.402161
L 160.166038 36.460876
L 160.479536 39.267334
L 162.047025 68.55304
L 162.360522 68.991394
L 162.67402 66.868835
L 162.987518 62.473755
L 164.241509 40.089661
L 164.555007 37.828674
L 164.868505 39.501343
L 165.182003 44.585266
L 166.122496 64.690247
L 166.435994 68.121277
L 166.749492 68.965027
L 167.06299 67.124268
L 167.376488 62.813232
L 168.630479 40.439026
L 168.943977 37.879761
L 169.257475 39.267334
L 169.570972 44.115601
L 170.511466 64.301331
L 170.824964 67.890564
L 171.138462 68.892517
L 171.451959 67.297302
L 171.765457 63.264771
L 173.019448 40.859253
L 173.332946 38.036316
L 173.646444 39.049805
L 173.959942 43.647583
L 174.900435 63.833313
L 175.213933 67.62854
L 175.527431 68.869446
L 175.840929 67.476929
L 176.154427 63.627319
L 177.408418 41.277832
L 177.721916 38.204407
L 178.035414 38.889954
L 178.348911 43.227356
L 179.289405 63.365295
L 179.602903 67.346741
L 179.916401 68.787048
L 180.229898 67.608765
L 180.543396 63.97998
L 181.797388 41.709595
L 182.110885 38.400513
L 182.424383 38.766357
L 182.737881 42.825256
L 183.991872 67.03363
L 184.30537 68.686523
L 184.618868 67.727417
L 184.932366 64.314514
L 186.499855 38.644409
L 186.813353 38.66748
L 187.126851 42.441284
L 188.380842 66.710632
L 188.69434 68.567871
L 189.007837 67.834534
L 189.321335 64.616089
L 190.888824 38.911377
L 191.202322 38.591675
L 191.51582 42.088623
L 192.769811 66.377747
L 193.083309 68.426147
L 193.396807 67.908691
L 193.710305 64.90448
L 195.277794 39.657898
L 195.591292 39.280518
L 195.90479 42.306152
L 197.158781 64.439758
L 197.472279 66.908386
L 197.785776 67.10614
L 198.099274 64.988525
L 198.72627 55.412292
L 199.353266 45.424072
L 199.666763 41.707947
L 199.980261 40.17865
L 200.293759 41.750793
L 200.607257 45.94812
L 201.54775 62.979675
L 201.861248 66.173401
L 202.174746 67.120972
L 202.488244 65.744934
L 202.801742 62.241394
L 204.055733 42.777466
L 204.369231 40.409363
L 204.682729 41.012512
L 204.996226 44.473206
L 206.250218 65.342834
L 206.563716 66.995728
L 206.877213 66.344788
L 207.190711 63.47406
L 208.7582 40.954834
L 209.071698 40.570862
L 209.385196 43.205933
L 210.012192 54.131836
L 210.639187 64.289795
L 210.952685 66.652954
L 211.266183 66.718872
L 211.579681 64.525452
L 212.206676 55.025024
L 212.833672 45.308716
L 213.14717 41.757385
L 213.460668 40.424194
L 213.774165 42.159485
L 214.087663 46.419434
L 215.028157 63.067017
L 215.341655 66.082764
L 215.655152 66.868835
L 215.96865 65.36261
L 216.282148 61.806335
L 217.536139 42.770874
L 217.849637 40.607117
L 218.163135 41.375061
L 218.476633 44.934631
L 219.730624 65.304932
L 220.044122 66.788086
L 220.35762 65.998718
L 220.671118 63.062073
L 222.238607 41.075134
L 222.552104 40.882324
L 222.865602 43.650879
L 223.492598 54.51416
L 224.119594 64.322754
L 224.433091 66.489807
L 224.746589 66.418945
L 225.060087 64.126648
L 225.687083 54.70697
L 226.314078 45.244446
L 226.627576 42.091919
L 226.941074 41.254761
L 227.254572 43.144958
L 227.881567 52.389954
L 228.508563 62.017273
L 228.822061 64.818787
L 229.135559 65.654297
L 229.449057 64.444702
L 229.762554 61.369629
L 231.016546 44.278748
L 231.330044 42.327576
L 231.643541 42.70166
L 231.957039 45.404297
L 233.21103 63.513611
L 233.524528 65.342834
L 233.838026 65.133545
L 234.151524 62.94342
L 234.77852 54.318054
L 235.405515 45.822876
L 235.719013 43.062561
L 236.032511 42.296265
L 236.346009 43.932678
L 236.973004 52.480591
L 237.6 61.939819
L 237.913498 50.125671
L 238.226996 86.072388
L 238.853991 25.360291
L 239.480987 80.060669
L 240.107983 24.061707
L 240.42148 53.874756
L 240.734978 67.574158
L 241.048476 60.094116
L 241.361974 35.631958
L 241.675472 49.283569
L 241.98897 68.526672
L 242.302467 66.31842
L 242.615965 45.532837
L 242.929463 70.787659
L 243.242961 67.364868
L 243.869956 36.708069
L 244.496952 56.318665
L 245.123948 34.928284
L 245.437446 53.657227
L 245.750943 52.839844
L 246.064441 43.74646
L 246.377939 52.668457
L 246.691437 67.083069
L 247.004935 66.743591
L 247.318433 62.674805
L 247.63193 61.218018
L 247.945428 62.8396
L 248.258926 58.278076
L 248.572424 50.188293
L 248.885922 47.309326
L 249.199419 47.200562
L 249.512917 45.069763
L 249.826415 41.063599
L 250.139913 44.201294
L 250.453411 52.594299
L 250.766909 56.938293
L 251.080406 57.740845
L 251.707402 67.261047
L 252.0209 64.434814
L 252.334398 60.019958
L 252.647896 58.220398
L 252.961393 55.466675
L 253.588389 44.603394
L 253.901887 43.013123
L 254.215385 44.20459
L 254.528882 44.133728
L 254.84238 47.485657
L 255.469376 58.983398
L 256.409869 65.135193
L 256.723367 64.095337
L 257.977358 47.907532
L 258.290856 44.029907
L 258.604354 42.836792
L 258.917852 44.412231
L 259.544848 50.550842
L 260.171843 59.901306
L 260.485341 62.819824
L 260.798839 63.754211
L 261.112337 63.582825
L 261.425835 61.982666
L 262.993324 44.425415
L 263.306821 43.624512
L 263.620319 45.409241
L 264.247315 52.727783
L 264.874311 60.970825
L 265.187808 63.488892
L 265.501306 63.938782
L 265.814804 62.854431
L 266.128302 60.290222
L 267.382293 45.595459
L 267.695791 44.089233
L 268.009289 44.298523
L 268.322787 46.538086
L 269.576778 62.05188
L 269.890276 63.85968
L 270.203774 63.762451
L 270.517271 61.877197
L 271.144267 54.627869
L 271.771263 47.035767
L 272.084761 44.670959
L 272.398258 44.001892
L 272.711756 45.181824
L 273.025254 48.036072
L 274.279245 62.950012
L 274.592743 63.953613
L 274.906241 63.154358
L 275.219739 60.647827
L 276.47373 45.934937
L 276.787228 44.160095
L 277.100726 44.303467
L 277.414224 46.26947
L 278.041219 53.990112
L 278.668215 61.653076
L 278.981713 63.569641
L 279.29521 63.750916
L 279.608708 62.193604
L 280.235704 55.155212
L 280.8627 47.57959
L 281.176197 45.0401
L 281.489695 44.036499
L 281.803193 44.969238
L 282.116691 47.629028
L 283.370682 62.628662
L 283.68418 63.815186
L 283.997678 63.243347
L 284.311176 61.016968
L 285.878665 44.446838
L 286.192163 44.267212
L 286.50566 45.967896
L 287.132656 53.383667
L 287.759652 61.161987
L 288.073149 63.297729
L 288.386647 63.737732
L 288.700145 62.42926
L 289.013643 59.601379
L 290.267634 45.534485
L 290.581132 44.489685
L 290.89463 45.236206
L 291.208128 47.605957
L 292.462119 61.504761
L 292.775617 62.864319
L 293.089115 62.648438
L 293.402612 60.888428
L 294.029608 54.229065
L 294.656604 47.582886
L 294.970102 45.636658
L 295.283599 45.173584
L 295.597097 46.33374
L 295.910595 48.930908
L 297.164586 62.05188
L 297.478084 62.862671
L 297.791582 62.074951
L 298.10508 59.830444
L 299.359071 46.742432
L 299.672569 45.321899
L 299.986067 45.453735
L 300.299565 47.184082
L 300.92656 53.945618
L 301.553556 60.731873
L 301.867054 62.491882
L 302.180552 62.71106
L 302.494049 61.359741
L 303.121045 55.163452
L 303.748041 48.331055
L 304.061538 46.09314
L 304.375036 45.22467
L 304.688534 45.969543
L 305.002032 48.212402
L 306.256023 61.519592
L 306.569521 62.71106
L 306.883019 62.335327
L 307.196517 60.461609
L 308.764006 45.631714
L 309.077504 45.359802
L 309.391001 46.67981
L 310.017997 52.960144
L 310.644993 59.995239
L 310.958491 62.094727
L 311.271988 62.714355
L 311.585486 61.756897
L 311.898984 59.410217
L 313.152975 46.627075
L 313.466473 45.392761
L 313.779971 45.710815
L 314.093469 47.577942
L 314.720464 54.38562
L 315.34746 60.893372
L 315.660958 62.460571
L 315.974456 62.495178
L 316.287954 61.000488
L 316.914949 54.726746
L 317.541945 48.106934
L 317.855443 46.048645
L 318.16894 45.366394
L 318.482438 46.27771
L 318.795936 48.632629
L 320.049927 61.603638
L 320.363425 62.617126
L 320.676923 62.056824
L 320.990421 60.067749
L 322.244412 47.299438
L 322.55791 45.847595
L 322.871408 45.880554
L 323.184906 47.385132
L 323.811901 53.441345
L 324.438897 59.683777
L 324.752395 61.455322
L 325.065893 61.868958
L 325.37939 60.899963
L 325.692888 58.686768
L 326.94688 47.248352
L 327.260377 46.262878
L 327.573875 46.648499
L 327.887373 48.392029
L 328.514369 54.500977
L 329.141364 60.285278
L 329.454862 61.651428
L 329.76836 61.616821
L 330.081858 60.229248
L 330.708853 54.533936
L 331.335849 48.609558
L 331.649347 46.809998
L 331.962845 46.274414
L 332.276343 47.12146
L 332.58984 49.235779
L 333.843832 60.834045
L 334.157329 61.748657
L 334.470827 61.269104
L 334.784325 59.467896
L 336.351814 46.52655
L 336.665312 46.445801
L 336.97881 47.721313
L 337.605806 53.337524
L 338.232801 59.461304
L 338.546299 61.250977
L 338.859797 61.702515
L 339.173295 60.773071
L 339.486792 58.619202
L 340.740784 47.363708
L 341.054282 46.386475
L 341.367779 46.757263
L 341.681277 48.453003
L 342.308273 54.451538
L 342.935269 60.153442
L 343.248766 61.517944
L 343.562264 61.508057
L 343.875762 60.150146
L 344.502758 54.565247
L 345.129753 48.769409
L 345.443251 47.014343
L 345.756749 54.983826
L 346.070247 49.567017
L 346.383745 70.973877
L 346.697242 34.241089
L 347.01074 48.395325
L 347.324238 54.973938
L 347.637736 84.618896
L 348.264731 26.723145
L 348.891727 83.315369
L 349.205225 42.159485
L 349.832221 55.110718
L 350.145718 61.155396
L 350.459216 33.422058
L 351.086212 52.404785
L 351.39971 58.024292
L 351.713208 42.17926
L 352.340203 64.892944
L 352.653701 63.291138
L 352.967199 51.816467
L 353.280697 54.939331
L 353.594194 61.600342
L 353.907692 55.216187
L 354.22119 42.337463
L 354.848186 53.14801
L 355.161684 46.602356
L 355.475181 43.898071
L 356.102177 59.294861
L 356.415675 55.344727
L 356.729173 54.791016
L 357.042671 62.526489
L 357.356168 64.868225
L 357.669666 58.40332
L 357.983164 54.411987
L 358.296662 55.247498
L 358.61016 55.273865
L 358.923657 47.714722
L 359.237155 45.463623
L 359.550653 48.657349
L 359.864151 50.252563
L 360.177649 48.441467
L 360.491147 50.786499
L 360.804644 56.473572
L 361.118142 58.927368
L 361.43164 59.133362
L 361.745138 59.952393
L 362.058636 61.620117
L 362.372134 59.423401
L 362.685631 55.610046
L 363.626125 49.054504
L 363.939623 46.546326
L 364.25312 47.109924
L 365.507112 55.970947
L 365.82061 59.397034
L 366.134107 60.527527
L 366.761103 60.166626
L 367.074601 58.734558
L 367.701597 52.442688
L 368.015094 50.152039
L 368.64209 47.179138
L 368.955588 47.182434
L 369.582583 51.623657
L 370.836575 60.834045
L 371.150073 60.509399
L 371.46357 59.357483
L 371.777068 57.531555
L 372.717562 49.421997
L 373.03106 47.968506
L 373.344557 47.38678
L 373.658055 47.754272
L 373.971553 49.53241
L 375.225544 59.790894
L 375.539042 60.832397
L 375.85254 60.431946
L 376.166038 58.879578
L 376.793033 53.947266
L 377.420029 48.827087
L 377.733527 47.594421
L 378.047025 47.446106
L 378.360522 48.352478
L 378.67402 50.318481
L 379.614514 58.469238
L 379.928012 60.160034
L 380.241509 60.763184
L 380.555007 60.110596
L 380.868505 58.273132
L 382.122496 48.364014
L 382.435994 47.385132
L 382.749492 47.604309
L 383.06299 48.942444
L 383.689985 53.99176
L 384.316981 59.120178
L 384.630479 60.456665
L 384.943977 60.6297
L 385.257475 59.612915
L 385.88447 54.886597
L 386.511466 49.7005
L 386.824964 48.092102
L 387.138462 47.541687
L 387.451959 48.167908
L 387.765457 49.848816
L 389.019448 59.232239
L 389.332946 60.09906
L 389.646444 59.876587
L 389.959942 58.619202
L 390.586938 54.016479
L 391.213933 49.497803
L 391.527431 48.250305
L 391.840929 48.011353
L 392.154427 48.838623
L 392.467925 50.598633
L 393.721916 59.509094
L 394.035414 60.075989
L 394.348911 59.548645
L 394.662409 58.00946
L 395.916401 49.038025
L 396.229898 48.083862
L 396.543396 48.181091
L 396.856894 49.318176
L 397.48389 53.823669
L 398.110885 58.507141
L 398.424383 59.781006
L 398.737881 60.000183
L 399.051379 59.131714
L 399.678374 54.97229
L 400.30537 50.227844
L 400.618868 48.665588
L 400.932366 48.02948
L 401.245864 48.457947
L 401.559361 49.881775
L 402.813353 58.985046
L 403.126851 59.940857
L 403.440348 59.812317
L 403.753846 58.632385
L 404.380842 54.171387
L 405.007837 49.667542
L 405.321335 48.385437
L 405.634833 48.077271
L 405.948331 48.841919
L 406.261829 50.527771
L 407.51582 59.369019
L 407.829318 59.988647
L 408.142816 59.518982
L 408.456313 58.060547
L 409.710305 49.192932
L 410.023803 48.197571
L 410.3373 48.232178
L 410.650798 49.304993
L 411.277794 53.683594
L 411.90479 58.343994
L 412.218287 59.655762
L 412.531785 59.930969
L 412.845283 59.12677
L 413.472279 55.094238
L 414.099274 50.390991
L 414.412772 48.810608
L 414.72627 48.120117
L 415.039768 48.48761
L 415.353266 49.847168
L 416.920755 59.830444
L 417.234253 59.754639
L 417.54775 58.657104
L 418.174746 54.31311
L 418.801742 49.855408
L 419.115239 48.604614
L 419.428737 48.324463
L 419.742235 49.059448
L 420.055733 50.672791
L 421.309724 58.831787
L 421.623222 59.431641
L 421.93672 59.059204
L 422.250218 57.7771
L 423.504209 49.749939
L 423.817707 48.805664
L 424.131205 48.767761
L 424.444702 49.677429
L 425.071698 53.548462
L 425.698694 57.790283
L 426.012192 59.041077
L 426.325689 59.359131
L 426.639187 58.711487
L 426.952685 57.218445
L 428.206676 49.397278
L 428.520174 48.719971
L 428.833672 48.965515
L 429.14717 50.122375
L 429.774165 54.237305
L 430.401161 58.233582
L 430.714659 59.215759
L 431.028157 59.242126
L 431.341655 58.325867
L 431.96865 54.484497
L 432.595646 50.386047
L 432.909144 49.123718
L 433.222642 48.719971
L 433.536139 49.252258
L 433.849637 50.644775
L 435.103628 58.591187
L 435.417126 59.303101
L 435.730624 59.032837
L 436.044122 57.872681
L 437.611611 48.925964
L 437.925109 48.810608
L 438.238607 49.603271
L 438.865602 53.325989
L 439.492598 57.56781
L 439.806096 58.889465
L 440.119594 59.296509
L 440.433091 58.74939
L 440.746589 57.346985
L 442.000581 49.581848
L 442.314078 48.815552
L 442.627576 48.975403
L 442.941074 50.028442
L 443.56807 54.013184
L 444.195065 58.02594
L 444.508563 59.087219
L 444.822061 59.205872
L 445.135559 58.396729
L 445.762554 54.688843
L 446.38955 50.595337
L 446.703048 49.280273
L 447.016546 48.797424
L 447.330044 49.227539
L 447.643541 50.511292
L 448.897533 58.413208
L 449.21103 59.197632
L 449.524528 59.037781
L 449.838026 57.963318
L 450.465022 54.023071
L 451.092017 50.150391
L 451.405515 49.06604
L 451.719013 48.843567
L 452.032511 49.550537
L 452.346009 51.050171
L 453.6 58.630737
L 453.6 58.630737
" style="fill:none;stroke:#e61ae6;stroke-linecap:square;stroke-width:1.5;"/>
   </g>
  </g>
 </g>
 <defs>
  <clipPath id="pc18caf8bee">
   <rect height="108" width="475.2" x="0" y="0"/>
  </clipPath>
 </defs>
</svg>
