<svg height="108pt" version="1.1" viewBox="0 0 475.2 108" width="475.2pt" xmlns="http://www.w3.org/2000/svg" xmlns:xlink="http://www.w3.org/1999/xlink">
 <g id="figure_1">
  <g id="patch_1">
   <path d="M 0 108
L 475.2 108
L 475.2 0
L 0 0
z
" style="fill:none;"/>
  </g>
  <g id="axes_1">
   <g id="line2d_1">
    <path clip-path="url(#p629da2a526)" d="M 21.6 54.453186
L 21.913498 31.101746
L 22.226996 66.760071
L 22.540493 68.671692
L 22.853991 40.888916
L 23.167489 35.254578
L 23.480987 59.451416
L 23.794485 69.487427
L 24.107983 59.166321
L 24.42148 62.539673
L 24.734978 71.189758
L 25.048476 63.600952
L 25.361974 38.446655
L 25.675472 44.155151
L 25.98897 39.890259
L 26.302467 31.584595
L 26.615965 33.746704
L 27.242961 68.312439
L 27.556459 64.927551
L 27.869956 64.710022
L 28.183454 73.681458
L 28.496952 71.553955
L 28.81045 56.066528
L 29.123948 50.315186
L 29.437446 54.876709
L 30.064441 34.455322
L 30.377939 32.876587
L 31.004935 51.251221
L 31.318433 54.070862
L 31.63193 63.508667
L 31.945428 69.531921
L 32.258926 71.346313
L 32.572424 66.003662
L 33.199419 61.190002
L 34.139913 38.532349
L 34.453411 36.872864
L 34.766909 36.348816
L 35.080406 40.612061
L 35.707402 61.621765
L 36.0209 66.267334
L 36.334398 68.103149
L 36.647896 70.876648
L 36.961393 70.677246
L 38.528882 36.043945
L 38.84238 32.522278
L 39.155878 36.736084
L 40.409869 68.274536
L 40.723367 71.423767
L 41.036865 70.86676
L 41.350363 68.174011
L 41.663861 63.434509
L 42.604354 42.030945
L 42.917852 36.777283
L 43.23135 34.307007
L 43.544848 36.495483
L 43.858345 43.845337
L 44.485341 62.271057
L 44.798839 68.417908
L 45.112337 72.236206
L 45.425835 72.804749
L 45.739332 69.50061
L 46.679826 47.245056
L 47.306821 32.800781
L 47.620319 32.767822
L 47.933817 38.387329
L 48.874311 65.143433
L 49.187808 70.426758
L 49.501306 72.363098
L 49.814804 71.272156
L 50.128302 67.412659
L 51.695791 34.435547
L 52.009289 33.988953
L 52.322787 38.967407
L 53.576778 70.891479
L 53.890276 73.228271
L 54.203774 72.079651
L 54.517271 67.366516
L 56.084761 31.896057
L 56.398258 34.239441
L 57.025254 51.353394
L 57.65225 67.677979
L 57.965747 71.59845
L 58.279245 72.407593
L 58.592743 70.112
L 58.906241 64.827026
L 60.160232 36.813538
L 60.47373 33.591797
L 60.787228 35.519897
L 61.100726 42.271545
L 62.041219 68.03064
L 62.354717 72.198303
L 62.668215 73.083252
L 62.981713 70.533875
L 63.608708 56.730652
L 64.549202 33.542358
L 64.8627 32.220703
L 65.176197 36.841553
L 66.430189 69.523682
L 66.743687 72.195007
L 67.057184 71.728638
L 67.370682 68.183899
L 68.938171 35.11615
L 69.251669 33.891724
L 69.565167 37.934143
L 70.819158 69.970276
L 71.132656 72.793213
L 71.446154 72.290588
L 71.759652 68.330566
L 72.700145 45.015381
L 73.013643 37.037659
L 73.327141 32.451416
L 73.640639 33.623108
L 73.954136 40.198425
L 74.89463 66.377747
L 75.208128 70.828857
L 75.521626 72.209839
L 75.835123 70.491028
L 76.148621 65.792725
L 77.402612 38.085754
L 77.71611 34.185059
L 78.029608 35.121094
L 78.343106 41.012512
L 79.283599 66.690857
L 79.597097 71.343018
L 79.910595 72.799805
L 80.224093 70.93103
L 80.537591 65.581787
L 81.791582 34.804688
L 82.10508 32.380554
L 82.418578 35.945068
L 83.672569 68.421204
L 83.986067 71.59845
L 84.299565 71.702271
L 84.613062 68.754089
L 85.240058 55.382629
L 86.180552 36.221924
L 86.494049 34.109253
L 86.807547 37.171143
L 87.434543 53.831909
L 88.061538 68.808472
L 88.375036 72.150513
L 88.688534 72.255981
L 89.002032 68.99469
L 89.629028 54.838806
L 90.569521 33.321533
L 90.883019 33.349548
L 91.196517 38.985535
L 92.13701 65.026428
L 92.450508 69.932373
L 92.764006 71.837402
L 93.077504 70.69043
L 93.391001 66.603516
L 94.644993 39.445312
L 94.958491 34.97937
L 95.271988 34.93158
L 95.585486 39.924866
L 96.52598 65.276917
L 96.839478 70.388855
L 97.152975 72.401001
L 97.466473 71.156799
L 97.779971 66.522766
L 99.34746 32.794189
L 99.660958 35.249634
L 100.287954 51.949951
L 100.914949 67.252808
L 101.228447 70.907959
L 101.541945 71.557251
L 101.855443 69.189148
L 102.16894 63.971741
L 103.109434 43.227356
L 103.422932 37.428223
L 103.73643 34.514648
L 104.049927 36.604248
L 104.363425 43.204285
L 105.303919 67.577454
L 105.617417 71.415527
L 105.930914 72.10437
L 106.244412 69.51709
L 106.871408 56.224731
L 107.811901 34.377869
L 108.125399 33.298462
L 108.438897 37.947327
L 109.692888 68.960083
L 110.006386 71.372681
L 110.319884 70.782715
L 110.633382 67.246216
L 112.200871 35.915405
L 112.514369 34.93158
L 112.827866 39.006958
L 114.081858 69.353943
L 114.395356 71.891785
L 114.708853 71.258972
L 115.022351 67.328613
L 115.962845 45.129089
L 116.276343 37.667175
L 116.58984 33.413818
L 116.903338 34.768433
L 117.216836 41.221802
L 118.157329 66.023438
L 118.470827 70.133423
L 118.784325 71.306763
L 119.097823 69.518738
L 119.411321 64.914368
L 120.665312 38.685608
L 120.97881 35.101318
L 121.292308 36.213684
L 121.605806 42.011169
L 122.546299 66.292053
L 122.859797 70.596497
L 123.173295 71.840698
L 123.486792 69.892822
L 123.80029 64.658936
L 125.054282 35.585815
L 125.367779 33.450073
L 125.681277 37.080505
L 126.935269 67.915283
L 127.248766 70.807434
L 127.562264 70.756348
L 127.875762 67.798279
L 128.502758 55.000305
L 129.443251 36.99646
L 129.756749 36.282898
L 130.070247 33.512695
L 130.383745 67.300598
L 130.697242 45.81134
L 131.01074 36.922302
L 131.324238 67.10614
L 131.637736 73.917114
L 131.951234 53.909363
L 132.264731 65.578491
L 132.578229 68.15094
L 132.891727 65.735046
L 133.205225 46.505127
L 133.518723 35.093079
L 133.832221 47.469177
L 134.145718 45.87561
L 134.459216 43.011475
L 134.772714 51.251221
L 135.086212 63.797058
L 135.39971 65.496094
L 135.713208 60.479736
L 136.026705 61.73053
L 136.340203 73.177185
L 136.653701 67.055054
L 136.967199 48.545288
L 137.280697 50.735413
L 137.594194 53.848389
L 137.907692 42.007874
L 138.22119 37.625977
L 138.534688 37.171143
L 138.848186 47.301086
L 139.161684 49.199524
L 139.475181 53.327637
L 140.102177 69.044128
L 140.415675 66.033325
L 141.042671 62.954956
L 141.356168 58.74115
L 141.983164 44.512756
L 142.61016 39.364563
L 142.923657 38.453247
L 143.237155 43.484436
L 143.864151 59.350891
L 144.804644 69.398438
L 145.118142 67.676331
L 146.685631 40.597229
L 146.999129 38.323059
L 147.312627 39.9776
L 147.939623 49.53241
L 148.566618 64.51886
L 148.880116 67.786743
L 149.193614 68.304199
L 149.507112 67.783447
L 149.82061 64.372192
L 150.761103 44.651184
L 151.074601 39.494751
L 151.388099 36.713013
L 151.701597 38.552124
L 153.269086 68.254761
L 153.582583 69.172668
L 153.896081 66.971008
L 154.523077 57.206909
L 155.46357 40.496704
L 155.777068 38.051147
L 156.090566 39.277222
L 156.404064 43.935974
L 157.344557 64.584778
L 157.658055 68.230042
L 157.971553 69.38855
L 158.285051 67.786743
L 158.598549 63.2005
L 159.85254 38.49115
L 160.166038 36.55481
L 160.479536 39.339844
L 162.047025 68.490417
L 162.360522 68.935364
L 162.67402 66.822693
L 162.987518 62.439148
L 164.241509 40.132507
L 164.555007 37.878113
L 164.868505 39.539246
L 165.182003 44.609985
L 166.122496 64.665527
L 166.435994 68.088318
L 166.749492 68.93042
L 167.06299 67.099548
L 167.376488 62.800049
L 168.630479 40.452209
L 168.943977 37.90448
L 169.257475 39.282166
L 169.570972 44.127136
L 170.511466 64.279907
L 170.824964 67.87738
L 171.138462 68.879333
L 171.451959 67.289062
L 171.765457 63.256531
L 173.019448 40.870789
L 173.332946 38.037964
L 173.646444 39.059692
L 173.959942 43.66571
L 174.900435 63.828369
L 175.213933 67.625244
L 175.527431 68.861206
L 175.840929 67.463745
L 176.154427 63.624023
L 177.408418 41.277832
L 177.721916 38.206055
L 178.035414 38.894897
L 178.348911 43.225708
L 179.289405 63.360352
L 179.602903 67.338501
L 179.916401 68.782104
L 180.229898 67.615356
L 180.543396 63.978333
L 181.797388 41.707947
L 182.110885 38.412048
L 182.424383 38.769653
L 182.737881 42.815369
L 183.991872 67.036926
L 184.30537 68.688171
L 184.618868 67.734009
L 184.932366 64.30957
L 186.499855 38.639465
L 186.813353 38.66748
L 187.126851 42.446228
L 188.380842 66.715576
L 188.69434 68.571167
L 189.007837 67.822998
L 189.321335 64.617737
L 190.888824 38.906433
L 191.202322 38.598267
L 191.51582 42.091919
L 192.769811 66.372803
L 193.083309 68.434387
L 193.396807 67.907043
L 193.710305 64.897888
L 195.277794 39.66449
L 195.591292 39.282166
L 195.90479 42.3078
L 197.158781 64.447998
L 197.472279 66.910034
L 197.785776 67.099548
L 198.099274 64.991821
L 198.72627 55.418884
L 199.353266 45.415833
L 199.666763 41.716187
L 199.980261 40.183594
L 200.293759 41.754089
L 200.607257 45.944824
L 201.54775 62.979675
L 201.861248 66.175049
L 202.174746 67.127563
L 202.488244 65.743286
L 202.801742 62.241394
L 204.055733 42.777466
L 204.369231 40.414307
L 204.682729 41.00592
L 204.996226 44.468262
L 206.250218 65.336243
L 206.563716 66.99408
L 206.877213 66.346436
L 207.190711 63.483948
L 208.7582 40.954834
L 209.071698 40.56427
L 209.385196 43.205933
L 210.012192 54.133484
L 210.639187 64.296387
L 210.952685 66.641418
L 211.266183 66.717224
L 211.579681 64.5271
L 212.206676 55.023376
L 212.833672 45.300476
L 213.14717 41.752441
L 213.460668 40.429138
L 213.774165 42.161133
L 214.087663 46.417786
L 215.028157 63.070312
L 215.341655 66.07782
L 215.655152 66.860596
L 215.96865 65.377441
L 216.282148 61.807983
L 217.536139 42.770874
L 217.849637 40.605469
L 218.163135 41.378357
L 218.476633 44.931335
L 219.730624 65.296692
L 220.044122 66.789734
L 220.35762 66.00531
L 220.671118 63.057129
L 222.238607 41.066895
L 222.552104 40.880676
L 222.865602 43.649231
L 223.492598 54.515808
L 224.119594 64.314514
L 224.433091 66.491455
L 224.746589 66.414001
L 225.060087 64.125
L 225.687083 54.708618
L 226.314078 45.246094
L 226.627576 42.091919
L 226.941074 41.259705
L 227.254572 43.149902
L 227.881567 52.388306
L 228.508563 62.028809
L 228.822061 64.808899
L 229.135559 65.646057
L 229.449057 64.443054
L 229.762554 61.361389
L 231.016546 44.267212
L 231.330044 42.320984
L 231.643541 42.708252
L 231.957039 45.402649
L 233.21103 63.513611
L 233.524528 65.34613
L 233.838026 65.136841
L 234.151524 62.938477
L 234.77852 54.316406
L 235.405515 45.821228
L 235.719013 43.060913
L 236.032511 42.296265
L 236.346009 43.934326
L 236.973004 52.482239
L 237.6 61.934875
L 237.913498 50.096008
L 238.226996 78.183655
L 238.540493 50.924927
L 238.853991 34.2724
L 239.167489 50.506348
L 239.480987 72.516357
L 240.107983 32.306396
L 240.42148 53.914307
L 240.734978 64.039307
L 241.048476 58.569763
L 241.361974 40.046814
L 241.675472 50.377808
L 241.98897 65.295044
L 242.302467 63.693237
L 242.615965 47.259888
L 242.929463 67.506592
L 243.242961 64.846802
L 243.869956 39.699097
L 244.496952 55.954468
L 245.123948 37.690247
L 245.437446 53.708313
L 245.750943 52.993103
L 246.064441 45.045044
L 246.377939 52.828308
L 246.691437 65.565308
L 247.004935 65.334595
L 247.318433 61.758545
L 247.63193 60.497864
L 247.945428 61.98761
L 248.258926 57.887512
L 248.572424 50.521179
L 248.885922 47.874573
L 249.199419 47.739441
L 249.512917 45.745422
L 249.826415 41.997986
L 250.139913 44.880249
L 250.453411 52.691528
L 250.766909 56.760315
L 251.080406 57.523315
L 251.707402 66.542542
L 252.0209 63.881104
L 252.334398 59.720032
L 252.647896 58.0177
L 252.961393 55.394165
L 253.588389 44.993958
L 253.901887 43.448181
L 254.215385 44.577026
L 254.528882 44.494629
L 254.84238 47.703186
L 255.469376 58.825195
L 256.409869 64.833618
L 256.723367 63.836609
L 257.977358 48.034424
L 258.290856 44.234253
L 258.604354 43.051025
L 258.917852 44.585266
L 259.544848 50.605225
L 260.171843 59.807373
L 260.485341 62.691284
L 260.798839 63.620728
L 261.112337 63.454285
L 261.425835 61.883789
L 262.993324 44.5177
L 263.306821 43.725037
L 263.620319 45.486694
L 264.247315 52.731079
L 264.874311 60.926331
L 265.187808 63.42627
L 265.501306 63.872864
L 265.814804 62.786865
L 266.128302 60.245728
L 267.382293 45.64325
L 267.695791 44.143616
L 268.009289 44.339722
L 268.322787 46.571045
L 269.576778 62.022217
L 269.890276 63.823425
L 270.203774 63.727844
L 270.517271 61.854126
L 271.144267 54.624573
L 271.771263 47.047302
L 272.084761 44.690735
L 272.398258 44.02002
L 272.711756 45.195007
L 273.025254 48.044312
L 274.279245 62.940125
L 274.592743 63.943726
L 274.906241 63.142822
L 275.219739 60.637939
L 276.47373 45.946472
L 276.787228 44.176575
L 277.100726 44.306763
L 277.414224 46.281006
L 278.041219 53.985168
L 278.668215 61.644836
L 278.981713 63.559753
L 279.29521 63.744324
L 279.608708 62.187012
L 280.235704 55.161804
L 280.8627 47.589478
L 281.176197 45.043396
L 281.489695 44.043091
L 281.803193 44.972534
L 282.116691 47.63562
L 283.370682 62.63031
L 283.68418 63.815186
L 283.997678 63.235107
L 284.311176 61.012024
L 285.878665 44.441895
L 286.192163 44.270508
L 286.50566 45.969543
L 287.132656 53.390259
L 287.759652 61.165283
L 288.073149 63.304321
L 288.386647 63.727844
L 288.700145 62.427612
L 289.013643 59.606323
L 290.267634 45.537781
L 290.581132 44.488037
L 290.89463 45.24115
L 291.208128 47.609253
L 292.462119 61.506409
L 292.775617 62.859375
L 293.089115 62.641846
L 293.402612 60.893372
L 294.029608 54.219177
L 294.656604 47.589478
L 294.970102 45.638306
L 295.283599 45.162048
L 295.597097 46.335388
L 295.910595 48.924316
L 297.164586 62.05188
L 297.478084 62.861023
L 297.791582 62.078247
L 298.10508 59.840332
L 299.359071 46.747375
L 299.672569 45.31366
L 299.986067 45.465271
L 300.299565 47.180786
L 300.92656 53.952209
L 301.553556 60.738464
L 301.867054 62.495178
L 302.180552 62.70282
L 302.494049 61.358093
L 303.121045 55.1651
L 303.748041 48.326111
L 304.061538 46.094788
L 304.375036 45.22467
L 304.688534 45.972839
L 305.002032 48.212402
L 306.256023 61.511353
L 306.569521 62.712708
L 306.883019 62.338623
L 307.196517 60.471497
L 308.764006 45.630066
L 309.077504 45.366394
L 309.391001 46.689697
L 310.017997 52.966736
L 310.644993 60.000183
L 310.958491 62.091431
L 311.271988 62.712708
L 311.585486 61.758545
L 311.898984 59.416809
L 313.152975 46.632019
L 313.466473 45.394409
L 313.779971 45.70752
L 314.093469 47.582886
L 314.720464 54.390564
L 315.34746 60.896667
L 315.660958 62.467163
L 315.974456 62.495178
L 316.287954 60.995544
L 316.914949 54.716858
L 317.541945 48.113525
L 317.855443 46.043701
L 318.16894 45.359802
L 318.482438 46.282654
L 318.795936 48.639221
L 320.049927 61.611877
L 320.363425 62.612183
L 320.676923 62.056824
L 320.990421 60.064453
L 322.244412 47.299438
L 322.55791 45.847595
L 322.871408 45.880554
L 323.184906 47.380188
L 323.811901 53.447937
L 324.438897 59.690369
L 324.752395 61.453674
L 325.065893 61.878845
L 325.37939 60.891724
L 325.692888 58.68512
L 326.94688 47.254944
L 327.260377 46.256287
L 327.573875 46.651794
L 327.887373 48.385437
L 328.514369 54.50592
L 329.141364 60.280334
L 329.454862 61.643188
L 329.76836 61.623413
L 330.081858 60.225952
L 330.708853 54.53064
L 331.335849 48.611206
L 331.649347 46.811646
L 331.962845 46.274414
L 332.276343 47.124756
L 332.58984 49.237427
L 333.843832 60.838989
L 334.157329 61.750305
L 334.470827 61.269104
L 334.784325 59.477783
L 336.038316 47.937195
L 336.351814 46.523254
L 336.665312 46.447449
L 336.97881 47.722961
L 337.605806 53.344116
L 338.232801 59.471191
L 338.546299 61.247681
L 338.859797 61.704163
L 339.173295 60.771423
L 339.486792 58.624146
L 340.740784 47.367004
L 341.054282 46.388123
L 341.367779 46.755615
L 341.681277 48.448059
L 342.308273 54.448242
L 342.935269 60.153442
L 343.248766 61.517944
L 343.562264 61.508057
L 343.875762 60.146851
L 344.502758 54.560303
L 345.129753 48.766113
L 345.443251 46.997864
L 345.756749 54.950867
L 346.070247 50.643127
L 346.383745 66.890259
L 346.697242 39.292053
L 347.01074 49.899902
L 347.324238 54.728394
L 347.637736 75.693604
L 348.264731 34.107605
L 348.891727 75.912781
L 349.205225 45.025269
L 349.832221 54.868469
L 350.145718 59.621155
L 350.459216 37.652344
L 351.086212 52.704712
L 351.39971 57.292603
L 351.713208 44.235901
L 352.340203 63.162598
L 352.653701 61.882141
L 352.967199 52.134521
L 353.280697 54.814087
L 353.594194 60.600037
L 353.907692 55.067871
L 354.22119 43.759644
L 354.848186 53.233704
L 355.161684 47.381836
L 355.475181 44.918152
L 356.102177 58.807068
L 356.415675 55.22937
L 356.729173 54.726746
L 357.042671 61.839294
L 357.356168 64.037659
L 357.669666 58.080322
L 357.983164 54.392212
L 358.296662 55.1651
L 358.61016 55.203003
L 358.923657 48.098694
L 359.237155 45.95636
L 359.550653 48.957275
L 359.864151 50.453613
L 360.177649 48.716675
L 360.491147 50.941406
L 360.804644 56.363159
L 361.118142 58.704895
L 361.43164 58.91748
L 361.745138 59.720032
L 362.058636 61.335022
L 362.372134 59.228943
L 362.685631 55.55896
L 363.626125 49.209412
L 363.939623 46.763855
L 364.25312 47.292847
L 365.507112 55.933044
L 365.82061 59.278381
L 366.134107 60.397339
L 366.761103 60.049622
L 367.074601 58.645569
L 367.701597 52.467407
L 368.328592 48.767761
L 368.64209 47.269775
L 368.955588 47.271423
L 369.582583 51.651672
L 370.836575 60.763184
L 371.150073 60.445129
L 371.46357 59.314636
L 371.777068 57.501892
L 372.717562 49.458252
L 373.03106 48.013
L 373.344557 47.429626
L 373.658055 47.790527
L 373.971553 49.557129
L 375.225544 59.757935
L 375.539042 60.802734
L 375.85254 60.397339
L 376.166038 58.863098
L 376.793033 53.94397
L 377.420029 48.835327
L 377.733527 47.617493
L 378.047025 47.472473
L 378.360522 48.36731
L 378.67402 50.330017
L 379.614514 58.46759
L 379.928012 60.141907
L 380.241509 60.743408
L 380.555007 60.09906
L 380.868505 58.259949
L 382.122496 48.378845
L 382.435994 47.38678
L 382.749492 47.614197
L 383.06299 48.942444
L 383.689985 53.993408
L 384.316981 59.115234
L 384.630479 60.446777
L 384.943977 60.628052
L 385.257475 59.604675
L 385.88447 54.888245
L 386.511466 49.70874
L 386.824964 48.10199
L 387.138462 47.543335
L 387.451959 48.167908
L 387.765457 49.85376
L 389.019448 59.228943
L 389.332946 60.09082
L 389.646444 59.866699
L 389.959942 58.619202
L 390.586938 54.014832
L 391.213933 49.506042
L 391.527431 48.255249
L 391.840929 48.011353
L 392.154427 48.840271
L 392.467925 50.608521
L 393.721916 59.510742
L 394.035414 60.074341
L 394.348911 59.537109
L 394.662409 58.006165
L 395.916401 49.041321
L 396.229898 48.090454
L 396.543396 48.182739
L 396.856894 49.319824
L 397.48389 53.825317
L 398.110885 58.510437
L 398.424383 59.774414
L 398.737881 59.998535
L 399.051379 59.131714
L 399.678374 54.968994
L 400.30537 50.226196
L 400.618868 48.665588
L 400.932366 48.034424
L 401.245864 48.454651
L 401.559361 49.881775
L 402.813353 58.985046
L 403.126851 59.930969
L 403.440348 59.809021
L 403.753846 58.632385
L 404.380842 54.169739
L 405.007837 49.679077
L 405.321335 48.377197
L 405.634833 48.077271
L 405.948331 48.832031
L 406.261829 50.531067
L 407.51582 59.373962
L 407.829318 59.990295
L 408.142816 59.518982
L 408.456313 58.058899
L 409.710305 49.197876
L 410.023803 48.199219
L 410.3373 48.237122
L 410.650798 49.303345
L 411.277794 53.677002
L 411.90479 58.334106
L 412.218287 59.64917
L 412.531785 59.927673
L 412.845283 59.128418
L 413.472279 55.090942
L 414.099274 50.384399
L 414.412772 48.805664
L 414.72627 48.125061
L 415.039768 48.482666
L 415.353266 49.847168
L 416.920755 59.827148
L 417.234253 59.766174
L 417.54775 58.663696
L 418.174746 54.318054
L 418.801742 49.863647
L 419.115239 48.611206
L 419.428737 48.324463
L 419.742235 49.06604
L 420.369231 52.867859
L 420.996226 57.353577
L 421.309724 58.835083
L 421.623222 59.429993
L 421.93672 59.05426
L 422.250218 57.775452
L 423.504209 49.749939
L 423.817707 48.805664
L 424.131205 48.767761
L 424.444702 49.674133
L 425.071698 53.546814
L 425.698694 57.795227
L 426.012192 59.037781
L 426.325689 59.364075
L 426.639187 58.713135
L 426.952685 57.218445
L 428.206676 49.398926
L 428.520174 48.715027
L 428.833672 48.965515
L 429.14717 50.128967
L 429.774165 54.234009
L 430.401161 58.228638
L 430.714659 59.209167
L 431.028157 59.238831
L 431.341655 58.327515
L 431.96865 54.481201
L 432.595646 50.386047
L 432.909144 49.118774
L 433.222642 48.723267
L 433.536139 49.252258
L 433.849637 50.641479
L 435.103628 58.594482
L 435.417126 59.301453
L 435.730624 59.032837
L 436.044122 57.875977
L 437.611611 48.927612
L 437.925109 48.80896
L 438.238607 49.609863
L 438.865602 53.324341
L 439.492598 57.569458
L 439.806096 58.882874
L 440.119594 59.303101
L 440.433091 58.74939
L 440.746589 57.350281
L 442.000581 49.583496
L 442.314078 48.820496
L 442.627576 48.973755
L 442.941074 50.03009
L 443.56807 54.014832
L 444.195065 58.030884
L 444.508563 59.088867
L 444.822061 59.20752
L 445.135559 58.388489
L 445.762554 54.695435
L 446.38955 50.603577
L 446.703048 49.285217
L 447.016546 48.789185
L 447.330044 49.224243
L 447.643541 50.514587
L 448.897533 58.414856
L 449.21103 59.200928
L 449.524528 59.031189
L 449.838026 57.964966
L 450.465022 54.032959
L 451.092017 50.153687
L 451.405515 49.062744
L 451.719013 48.848511
L 452.032511 49.553833
L 452.346009 51.055115
L 453.6 58.634033
L 453.6 58.634033
" style="fill:none;stroke:#1a0dcc;stroke-linecap:square;stroke-width:1.5;"/>
   </g>
  </g>
 </g>
 <defs>
  <clipPath id="p629da2a526">
   <rect height="108" width="475.2" x="0" y="0"/>
  </clipPath>
 </defs>
</svg>
