<svg height="108pt" version="1.1" viewBox="0 0 475.2 108" width="475.2pt" xmlns="http://www.w3.org/2000/svg" xmlns:xlink="http://www.w3.org/1999/xlink">

 <g id="figure_1">
  <g id="patch_1">
   <path d="M 0 108
L 475.2 108
L 475.2 0
L 0 0
z
" style="fill:none;"/>
  </g>
  <g id="axes_1">
   <g id="line2d_1">
    <path clip-path="url(#p0c8c92a352)" d="M 21.6 53.980225
L 21.913498 46.877563
L 22.226996 59.535461
L 22.540493 61.38446
L 22.853991 47.698242
L 23.167489 44.848938
L 23.480987 56.53949
L 23.794485 60.857117
L 24.107983 56.165405
L 24.42148 57.406311
L 24.734978 60.984009
L 25.048476 57.806763
L 25.361974 48.156372
L 25.675472 50.494812
L 25.98897 49.262146
L 26.302467 46.131042
L 26.615965 45.381226
L 26.929463 54.214233
L 27.242961 59.462952
L 27.556459 57.940247
L 27.869956 57.650208
L 28.183454 60.352844
L 28.496952 59.462952
L 28.81045 54.611389
L 29.123948 52.976624
L 29.437446 54.232361
L 30.064441 49.346191
L 30.377939 48.639221
L 31.004935 53.36554
L 31.318433 54.00824
L 31.63193 55.962708
L 31.945428 57.035522
L 32.258926 57.220093
L 32.572424 56.112671
L 33.199419 55.142029
L 33.826415 52.600891
L 34.139913 51.908752
L 34.453411 51.791748
L 34.766909 51.837891
L 35.080406 52.447632
L 35.707402 54.805847
L 36.0209 55.22113
L 36.647896 55.524353
L 36.961393 55.435364
L 37.588389 54.163147
L 37.901887 53.817078
L 38.528882 52.796997
L 38.84238 52.628906
L 39.155878 52.958496
L 40.096372 54.365845
L 40.409869 54.711914
L 40.723367 54.819031
L 41.350363 54.606445
L 41.977358 54.079102
L 42.604354 53.583069
L 43.23135 53.370483
L 43.544848 53.472656
L 44.798839 54.364197
L 45.425835 54.425171
L 46.05283 54.182922
L 47.306821 53.645691
L 47.933817 53.759399
L 48.874311 54.146667
L 49.501306 54.214233
L 50.4418 54.07251
L 51.695791 53.831909
L 52.636284 53.950562
L 53.576778 54.112061
L 54.517271 54.075806
L 56.084761 53.902771
L 59.533237 53.993408
L 61.100726 53.975281
L 63.29521 54.013184
L 66.116691 54.011536
L 129.756749 54.034607
L 130.070247 43.927734
L 130.383745 60.216064
L 130.697242 50.354736
L 131.01074 46.71936
L 131.324238 59.291565
L 131.637736 64.073914
L 131.951234 53.962097
L 132.264731 59.27179
L 132.578229 60.09082
L 132.891727 58.810364
L 133.205225 51.106201
L 133.518723 46.996216
L 133.832221 51.707703
L 134.145718 51.294067
L 134.459216 50.516235
L 134.772714 53.16449
L 135.086212 56.80481
L 135.39971 57.122864
L 135.713208 55.664429
L 136.026705 55.881958
L 136.340203 58.432983
L 136.653701 56.867432
L 136.967199 52.866211
L 137.594194 53.973633
L 137.907692 51.86261
L 138.22119 51.233093
L 138.534688 51.295715
L 138.848186 52.983215
L 139.161684 53.299622
L 139.475181 53.914307
L 139.788679 55.137085
L 140.102177 55.867126
L 140.729173 55.140381
L 141.042671 54.949219
L 141.356168 54.472961
L 141.983164 53.129883
L 142.61016 52.792053
L 142.923657 52.77063
L 143.237155 53.215576
L 143.864151 54.364197
L 144.804644 54.894836
L 145.118142 54.756409
L 146.058636 53.932434
L 146.999129 53.358948
L 147.626125 53.625916
L 148.880116 54.423523
L 149.507112 54.380676
L 150.134107 54.082397
L 151.074601 53.685242
L 151.701597 53.693481
L 152.955588 54.173035
L 153.582583 54.229065
L 154.836575 53.965393
L 155.777068 53.828613
L 157.03106 54.041199
L 158.285051 54.097229
L 160.479536 53.92749
L 162.987518 54.028015
L 165.182003 53.980225
L 167.689985 54.00824
L 169.88447 53.998352
L 175.213933 54.011536
L 181.170392 53.995056
L 185.245864 54.003296
L 190.575327 54.001648
L 197.472279 54
L 207.817707 53.998352
L 237.913498 54.023071
L 238.226996 61.882141
L 238.853991 45.091187
L 239.480987 61.549255
L 240.107983 45.758606
L 240.42148 53.970337
L 240.734978 57.533203
L 241.048476 55.522705
L 241.361974 49.570312
L 241.98897 57.225037
L 242.302467 56.633423
L 242.615965 52.261414
L 242.929463 57.287659
L 243.242961 56.526306
L 243.869956 51.007324
L 244.496952 54.369141
L 245.123948 51.239685
L 245.437446 53.957153
L 245.750943 53.851685
L 246.064441 52.704712
L 246.377939 53.845093
L 246.691437 55.506226
L 247.004935 55.410645
L 247.318433 54.91626
L 247.63193 54.725098
L 247.945428 54.847046
L 248.258926 54.397156
L 248.572424 53.667114
L 248.885922 53.439697
L 249.199419 53.457825
L 249.826415 53.057373
L 250.139913 53.316101
L 250.453411 53.904419
L 250.766909 54.186218
L 251.080406 54.225769
L 251.707402 54.733337
L 253.588389 53.616028
L 253.901887 53.563293
L 254.84238 53.772583
L 255.469376 54.159851
L 256.723367 54.263672
L 257.977358 53.876404
L 258.604354 53.787415
L 259.858345 54.021423
L 260.798839 54.130188
L 261.739332 54.047791
L 262.993324 53.907715
L 264.247315 53.988464
L 265.814804 54.05603
L 270.203774 54.028015
L 278.354717 54.003296
L 281.489695 53.996704
L 291.521626 53.993408
L 294.656604 54.001648
L 305.002032 53.996704
L 309.077504 54.001648
L 319.109434 54.004944
L 345.756749 54.034607
L 346.070247 52.932129
L 346.383745 58.077026
L 346.697242 48.9375
L 347.01074 52.500366
L 347.324238 54.245544
L 347.637736 62.933533
L 348.264731 46.608948
L 348.891727 61.40918
L 349.205225 51.135864
L 349.518723 53.044189
L 350.145718 55.529297
L 350.459216 49.77301
L 351.086212 53.698425
L 351.39971 54.721802
L 351.713208 51.959839
L 352.026705 54.25708
L 352.340203 55.723755
L 352.653701 55.415588
L 352.967199 53.673706
L 353.280697 54.138428
L 353.594194 55.006897
L 353.907692 54.153259
L 354.22119 52.587708
L 354.848186 53.902771
L 355.161684 53.222168
L 355.475181 52.983215
L 356.102177 54.491089
L 356.415675 54.113708
L 356.729173 54.074158
L 357.042671 54.687195
L 357.356168 54.830566
L 357.669666 54.326294
L 357.983164 54.034607
L 358.61016 54.075806
L 358.923657 53.620972
L 359.237155 53.503967
L 359.864151 53.80719
L 360.177649 53.714905
L 360.491147 53.843445
L 360.804644 54.108765
L 361.43164 54.212585
L 362.372134 54.19281
L 362.999129 53.986816
L 364.25312 53.810486
L 366.447605 54.118652
L 367.701597 53.981873
L 368.955588 53.904419
L 371.46357 54.049438
L 374.285051 53.986816
L 376.793033 54.004944
L 379.301016 54.00824
L 385.570972 54.006592
L 390.900435 53.993408
L 395.289405 53.998352
L 402.186357 54.006592
L 406.575327 53.996704
L 410.023803 54.003296
L 415.666763 53.995056
L 437.611611 54.001648
L 444.508563 53.995056
L 448.897533 54
L 453.6 54.001648
L 453.6 54.001648
" style="fill:none;stroke:#cc0d1a;stroke-linecap:square;stroke-width:1.5;"/>
   </g>
  </g>
 </g>
 <defs>
  <clipPath id="p0c8c92a352">
   <rect height="108" width="475.2" x="0" y="0"/>
  </clipPath>
 </defs>
</svg>
