<svg height="18pt" version="1.1" viewBox="0 0 28.8 18" width="28.8pt" xmlns="http://www.w3.org/2000/svg" xmlns:xlink="http://www.w3.org/1999/xlink">

 <g id="figure_1">
  <g id="patch_1">
   <path d="M 0 18
L 28.8 18
L 28.8 0
L 0 0
z
" style="fill:none;"/>
  </g>
  <g id="axes_1">
   <g id="line2d_1">
    <path clip-path="url(#pabcc87849c)" d="M 1.309091 6.03
L 1.724675 6.03
L 2.14026 6.03
L 2.555844 6.03
L 2.971429 6.03
L 3.387013 6.03
L 3.802597 6.03
L 4.218182 6.03
L 4.633766 6.03
L 5.049351 6.03
L 5.464935 6.03
L 5.880519 6.112857
L 6.296104 6.398571
L 6.711688 6.684286
L 7.127273 6.97
L 7.542857 7.255714
L 7.958442 7.541429
L 8.374026 7.827143
L 8.78961 8.112857
L 9.205195 8.398571
L 9.620779 8.684286
L 10.036364 8.97
L 10.451948 9
L 10.867532 9
L 11.283117 9
L 11.698701 9
L 12.114286 9
L 12.52987 9
L 12.945455 9
L 13.361039 9
L 13.776623 9
L 14.192208 9
L 14.607792 9
L 15.023377 9
L 15.438961 9
L 15.854545 9
L 16.27013 9
L 16.685714 9
L 17.101299 9
L 17.516883 9
L 17.932468 9
L 18.348052 9
L 18.763636 9.03
L 19.179221 9.315714
L 19.594805 9.601429
L 20.01039 9.887143
L 20.425974 10.172857
L 20.841558 10.458571
L 21.257143 10.744286
L 21.672727 11.03
L 22.088312 11.315714
L 22.503896 11.601429
L 22.919481 11.887143
L 23.335065 11.97
L 23.750649 11.97
L 24.166234 11.97
L 24.581818 11.97
L 24.997403 11.97
L 25.412987 11.97
L 25.828571 11.97
L 26.244156 11.97
L 26.65974 11.97
L 27.075325 11.97
L 27.490909 11.97
" style="fill:none;stroke:#1a0dcc;stroke-linecap:square;stroke-width:1.5;"/>
   </g>
  </g>
 </g>
 <defs>
  <clipPath id="pabcc87849c">
   <rect height="18" width="28.8" x="0" y="0"/>
  </clipPath>
 </defs>
</svg>
