<svg height="18pt" version="1.1" viewBox="0 0 28.8 18" width="28.8pt" xmlns="http://www.w3.org/2000/svg" xmlns:xlink="http://www.w3.org/1999/xlink">

 <g id="figure_1">
  <g id="patch_1">
   <path d="M 0 18
L 28.8 18
L 28.8 0
L 0 0
z
" style="fill:none;"/>
  </g>
  <g id="axes_1">
   <g id="line2d_1">
    <path clip-path="url(#pecdcb50537)" d="M 1.309091 18
L 1.724675 17.714286
L 2.14026 17.428571
L 2.555844 17.142857
L 2.971429 16.857143
L 3.387013 16.571429
L 3.802597 16.285714
L 4.218182 16
L 4.633766 15.714286
L 5.049351 15.428571
L 5.464935 15.142857
L 5.880519 14.857143
L 6.296104 14.571429
L 6.711688 14.285714
L 7.127273 14
L 7.542857 13.714286
L 7.958442 13.428571
L 8.374026 13.142857
L 8.78961 12.857143
L 9.205195 12.571429
L 9.620779 12.285714
L 10.036364 12
L 10.451948 11.714286
L 10.867532 11.428571
L 11.283117 11.142857
L 11.698701 10.857143
L 12.114286 10.571429
L 12.52987 10.285714
L 12.945455 10
L 13.361039 9.714286
L 13.776623 9.428571
L 14.192208 9.142857
L 14.607792 8.857143
L 15.023377 8.571429
L 15.438961 8.285714
L 15.854545 8
L 16.27013 7.714286
L 16.685714 7.428571
L 17.101299 7.142857
L 17.516883 6.857143
L 17.932468 6.571429
L 18.348052 6.285714
L 18.763636 6
L 19.179221 5.714286
L 19.594805 5.428571
L 20.01039 5.142857
L 20.425974 4.857143
L 20.841558 4.571429
L 21.257143 4.285714
L 21.672727 4
L 22.088312 3.714286
L 22.503896 3.428571
L 22.919481 3.142857
L 23.335065 2.857143
L 23.750649 2.571429
L 24.166234 2.285714
L 24.581818 2
L 24.997403 1.714286
L 25.412987 1.428571
L 25.828571 1.142857
L 26.244156 0.857143
L 26.65974 0.571429
L 27.075325 0.285714
L 27.490909 0
" style="fill:none;stroke:#1a0dcc;stroke-linecap:square;stroke-width:1.5;"/>
   </g>
  </g>
 </g>
 <defs>
  <clipPath id="pecdcb50537">
   <rect height="18" width="28.8" x="0" y="0"/>
  </clipPath>
 </defs>
</svg>
