<svg height="18pt" version="1.1" viewBox="0 0 28.8 18" width="28.8pt" xmlns="http://www.w3.org/2000/svg" xmlns:xlink="http://www.w3.org/1999/xlink">

 <g id="figure_1">
  <g id="patch_1">
   <path d="M 0 18
L 28.8 18
L 28.8 0
L 0 0
z
" style="fill:none;"/>
  </g>
  <g id="axes_1">
   <g id="line2d_1">
    <path clip-path="url(#pac73bfb031)" d="M 1.309091 15.03
L 1.724675 14.744286
L 2.14026 14.458571
L 2.555844 14.172857
L 2.971429 13.887143
L 3.387013 13.601429
L 3.802597 13.315714
L 4.218182 13.03
L 4.633766 12.744286
L 5.049351 12.458571
L 5.464935 12.172857
L 5.880519 11.97
L 6.296104 11.97
L 6.711688 11.97
L 7.127273 11.97
L 7.542857 11.97
L 7.958442 11.97
L 8.374026 11.97
L 8.78961 11.97
L 9.205195 11.97
L 9.620779 11.97
L 10.036364 11.97
L 10.451948 11.714286
L 10.867532 11.428571
L 11.283117 11.142857
L 11.698701 10.857143
L 12.114286 10.571429
L 12.52987 10.285714
L 12.945455 10
L 13.361039 9.714286
L 13.776623 9.428571
L 14.192208 9.142857
L 14.607792 8.857143
L 15.023377 8.571429
L 15.438961 8.285714
L 15.854545 8
L 16.27013 7.714286
L 16.685714 7.428571
L 17.101299 7.142857
L 17.516883 6.857143
L 17.932468 6.571429
L 18.348052 6.285714
L 18.763636 6.03
L 19.179221 6.03
L 19.594805 6.03
L 20.01039 6.03
L 20.425974 6.03
L 20.841558 6.03
L 21.257143 6.03
L 21.672727 6.03
L 22.088312 6.03
L 22.503896 6.03
L 22.919481 6.03
L 23.335065 5.827143
L 23.750649 5.541429
L 24.166234 5.255714
L 24.581818 4.97
L 24.997403 4.684286
L 25.412987 4.398571
L 25.828571 4.112857
L 26.244156 3.827143
L 26.65974 3.541429
L 27.075325 3.255714
L 27.490909 2.97
" style="fill:none;stroke:#1a0dcc;stroke-linecap:square;stroke-width:1.5;"/>
   </g>
  </g>
 </g>
 <defs>
  <clipPath id="pac73bfb031">
   <rect height="18" width="28.8" x="0" y="0"/>
  </clipPath>
 </defs>
</svg>
