<svg height="18pt" version="1.1" viewBox="0 0 28.8 18" width="28.8pt" xmlns="http://www.w3.org/2000/svg" xmlns:xlink="http://www.w3.org/1999/xlink">

 <g id="figure_1">
  <g id="patch_1">
   <path d="M 0 18
L 28.8 18
L 28.8 0
L 0 0
z
" style="fill:none;"/>
  </g>
  <g id="axes_1">
   <g id="line2d_1">
    <path clip-path="url(#p97dbe01af5)" d="M 1.309091 18
L 1.724675 18
L 2.14026 18
L 2.555844 18
L 2.971429 18
L 3.387013 18
L 3.802597 18
L 4.218182 18
L 4.633766 15.75
L 5.049351 15.75
L 5.464935 15.75
L 5.880519 15.75
L 6.296104 15.75
L 6.711688 15.75
L 7.127273 15.75
L 7.542857 15.75
L 7.958442 13.5
L 8.374026 13.5
L 8.78961 13.5
L 9.205195 13.5
L 9.620779 13.5
L 10.036364 13.5
L 10.451948 13.5
L 10.867532 13.5
L 11.283117 11.25
L 11.698701 11.25
L 12.114286 11.25
L 12.52987 11.25
L 12.945455 11.25
L 13.361039 11.25
L 13.776623 11.25
L 14.192208 11.25
L 14.607792 9
L 15.023377 9
L 15.438961 9
L 15.854545 9
L 16.27013 9
L 16.685714 9
L 17.101299 9
L 17.516883 9
L 17.932468 6.75
L 18.348052 6.75
L 18.763636 6.75
L 19.179221 6.75
L 19.594805 6.75
L 20.01039 6.75
L 20.425974 6.75
L 20.841558 6.75
L 21.257143 4.5
L 21.672727 4.5
L 22.088312 4.5
L 22.503896 4.5
L 22.919481 4.5
L 23.335065 4.5
L 23.750649 4.5
L 24.166234 4.5
L 24.581818 2.25
L 24.997403 2.25
L 25.412987 2.25
L 25.828571 2.25
L 26.244156 2.25
L 26.65974 2.25
L 27.075325 2.25
L 27.490909 0
" style="fill:none;stroke:#1a0dcc;stroke-linecap:square;stroke-width:1.5;"/>
   </g>
  </g>
 </g>
 <defs>
  <clipPath id="p97dbe01af5">
   <rect height="18" width="28.8" x="0" y="0"/>
  </clipPath>
 </defs>
</svg>
