<svg height="18pt" version="1.1" viewBox="0 0 28.8 18" width="28.8pt" xmlns="http://www.w3.org/2000/svg" xmlns:xlink="http://www.w3.org/1999/xlink">

 <g id="figure_1">
  <g id="patch_1">
   <path d="M 0 18
L 28.8 18
L 28.8 0
L 0 0
z
" style="fill:none;"/>
  </g>
  <g id="axes_1">
   <g id="line2d_1">
    <path clip-path="url(#pe010576229)" d="M 1.309091 9
L 1.724675 9.285714
L 2.14026 9.571429
L 2.555844 9.857143
L 2.971429 10.142857
L 3.387013 10.428571
L 3.802597 10.714286
L 4.218182 11
L 4.633766 9.035714
L 5.049351 9.321429
L 5.464935 9.607143
L 5.880519 9.892857
L 6.296104 10.178571
L 6.711688 10.464286
L 7.127273 10.75
L 7.542857 11.035714
L 7.958442 9.071429
L 8.374026 9.357143
L 8.78961 9.642857
L 9.205195 9.928571
L 9.620779 10.214286
L 10.036364 10.5
L 10.451948 10.785714
L 10.867532 11.071429
L 11.283117 9.107143
L 11.698701 9.392857
L 12.114286 9.678571
L 12.52987 9.964286
L 12.945455 10.25
L 13.361039 10.535714
L 13.776623 10.821429
L 14.192208 11.107143
L 14.607792 9.142857
L 15.023377 9.428571
L 15.438961 9.714286
L 15.854545 10
L 16.27013 10.285714
L 16.685714 10.571429
L 17.101299 10.857143
L 17.516883 11.142857
L 17.932468 9.178571
L 18.348052 9.464286
L 18.763636 9.75
L 19.179221 10.035714
L 19.594805 10.321429
L 20.01039 10.607143
L 20.425974 10.892857
L 20.841558 11.178571
L 21.257143 9.214286
L 21.672727 9.5
L 22.088312 9.785714
L 22.503896 10.071429
L 22.919481 10.357143
L 23.335065 10.642857
L 23.750649 10.928571
L 24.166234 11.214286
L 24.581818 9.25
L 24.997403 9.535714
L 25.412987 9.821429
L 25.828571 10.107143
L 26.244156 10.392857
L 26.65974 10.678571
L 27.075325 10.964286
L 27.490909 9
" style="fill:none;stroke:#1a0dcc;stroke-linecap:square;stroke-width:1.5;"/>
   </g>
  </g>
 </g>
 <defs>
  <clipPath id="pe010576229">
   <rect height="18" width="28.8" x="0" y="0"/>
  </clipPath>
 </defs>
</svg>
